   <svg version="1.1" xmlns="http://www.w3.org/2000/svg" viewBox="0 0 2339 2560">
                    <path fill="#2B4336" d="M2340.194580,960.958069 C2340.145752,982.672791 2340.016846,1003.468262 2340.079102,1025.192017 C2336.644531,1126.877808 2308.541016,1220.873047 2261.359375,1309.445557 C2216.691162,1393.299805 2157.097656,1465.466675 2087.097900,1529.272217 C2008.006226,1601.365112 1919.230469,1659.269165 1824.331421,1708.203247 C1752.876709,1745.048584 1678.345215,1774.752441 1603.573364,1803.915771 C1507.731689,1841.297363 1411.571411,1877.881836 1316.084351,1916.147339 C1235.656860,1948.378052 1157.462646,1985.565796 1082.101685,2028.503540 C1023.520935,2061.880615 967.514038,2099.084717 914.859741,2141.237305 C821.060303,2216.328857 742.557983,2304.907959 680.389771,2407.824951 C652.444214,2454.087402 628.121216,2502.192627 607.401611,2552.117188 C606.276062,2554.829346 604.858948,2557.420410 602.696045,2561.889160 C594.849548,2543.802490 587.065552,2527.597900 580.691833,2510.856201 C557.685120,2450.425781 544.462036,2387.710449 537.750977,2323.489746 C530.725891,2256.263672 531.029480,2189.040771 538.302185,2121.925049 C548.525208,2027.584106 571.163147,1936.448242 611.802124,1850.315308 C643.693909,1782.721924 685.175293,1721.956299 741.765625,1672.416138 C777.766174,1640.900513 817.825562,1615.138916 859.326660,1591.540894 C925.795532,1553.745850 995.513611,1522.922363 1066.977417,1496.091064 C1139.593872,1468.826904 1212.636597,1442.699829 1285.453369,1415.967529 C1345.921143,1393.768677 1404.512329,1367.542114 1459.501221,1333.750610 C1508.635742,1303.556763 1553.551514,1268.294922 1590.498657,1223.594849 C1629.116577,1176.873535 1654.556763,1124.057861 1663.189941,1063.776733 C1669.601929,1019.004089 1665.947266,974.693420 1655.072754,930.907776 C1641.538818,876.414368 1618.293213,826.086670 1589.083984,778.397400 C1551.642090,717.267151 1506.263306,662.428589 1455.869141,611.626282 C1376.750854,531.867310 1286.744263,466.292450 1191.185181,407.833435 C1072.720337,335.361511 948.618530,274.094635 820.653076,220.478867 C689.969238,165.724136 556.240173,119.793350 419.371796,83.073189 C404.903717,79.191582 390.342041,75.659683 375.835327,71.920631 C372.766907,71.129753 369.749207,70.142082 366.706726,68.433990 C530.481140,30.855680 696.188843,8.930026 865.042725,4.018974 C873.565186,3.991499 881.167969,4.122173 888.770996,4.143265 C919.916382,4.229669 951.061890,4.282658 983.124634,4.123465 C1019.297546,5.806904 1054.579590,7.325650 1089.802612,9.714408 C1141.983276,13.253213 1193.871704,19.507183 1245.577271,27.436306 C1328.285156,40.119701 1409.797119,58.095810 1489.959229,82.061203 C1630.155029,123.974236 1762.830322,182.471466 1885.577148,262.608612 C1985.828003,328.059143 2075.572021,405.448608 2151.396729,498.428558 C2217.428467,579.399841 2269.456299,668.377380 2303.333740,767.499939 C2322.363525,823.179565 2334.562744,880.375122 2339.427490,939.063904 C2340.004639,946.026672 2339.901855,953.045776 2340.194580,960.958069 z"/>
                    <path fill="#AFCB1F" d="M5.502727,1058.436768 C5.465935,1041.521973 5.672180,1025.564453 5.635182,1008.677979 C5.585807,1001.766052 5.779675,995.783081 6.367037,988.426147 C6.543669,984.699585 6.326808,982.346985 6.109951,979.994446 C6.734436,967.940552 7.358918,955.886597 8.351723,942.608704 C8.530947,940.254395 8.341848,939.124084 8.152746,937.993774 C9.405395,919.263123 10.658048,900.532532 12.340830,880.427124 C12.661554,876.604309 12.552149,874.156189 12.442739,871.708130 C13.027343,865.769348 13.611949,859.830566 14.525253,852.807739 C14.947923,851.481995 15.173551,851.195740 15.109839,851.007263 C14.953077,850.543701 14.663300,850.125122 14.426996,849.688477 C15.572076,838.369873 16.717167,827.051331 18.263723,814.563843 C18.531582,812.259216 18.397972,811.123352 18.264362,809.987549 C18.778246,805.850281 19.292130,801.712952 20.200958,796.484131 C20.461239,794.259033 20.326572,793.125549 20.191912,791.992004 C20.853554,786.619690 21.515190,781.247375 22.568840,774.721863 C23.343990,772.912170 23.245371,772.338440 22.664993,771.847412 C23.119720,768.500671 23.574450,765.153870 24.395779,760.748657 C24.862015,759.458679 25.094517,759.182983 25.035194,759.004150 C24.885822,758.553955 24.604790,758.147461 24.376520,757.723450 C24.883276,754.300476 25.390043,750.877502 26.244301,746.542603 C26.689308,745.416748 26.917959,745.152527 26.858953,744.998596 C26.702690,744.590942 26.421984,744.230957 26.190807,743.851990 C33.549122,693.427979 41.936165,643.190979 53.643562,593.562378 C66.280975,539.991455 81.664276,487.283783 104.072464,436.875244 C120.515381,399.885925 139.858795,364.621552 167.519592,334.556305 C185.127319,315.417969 205.337708,299.884216 229.844833,290.601715 C255.612900,280.841644 281.801392,281.085175 308.465057,287.053558 C384.825134,304.146027 458.036591,330.597504 529.954407,360.908600 C640.634216,407.556732 747.000732,462.864014 851.674927,521.562378 C917.965271,558.736206 983.148621,597.710754 1045.815674,640.760864 C1100.542358,678.356079 1153.435059,718.291443 1200.191162,765.724487 C1227.182373,793.106384 1251.616821,822.548584 1269.826782,856.679626 C1284.781982,884.710388 1294.284790,914.245178 1293.986938,946.412720 C1293.684326,979.099182 1282.964233,1008.424561 1265.259644,1035.471313 C1244.158447,1067.706787 1216.296753,1093.336792 1185.759521,1116.290283 C1135.932495,1153.742920 1081.035767,1182.330811 1024.607788,1208.226562 C960.948914,1237.440796 895.238342,1261.376587 829.028748,1283.985107 C748.676880,1311.422729 673.609375,1348.941895 605.753906,1400.288086 C548.201477,1443.838257 498.367371,1494.917236 456.586548,1553.828247 C392.343536,1644.410767 351.820496,1745.007568 329.999207,1853.483276 C321.119629,1897.624634 315.870422,1942.206665 313.378845,1987.190063 C311.033386,2029.535522 311.452423,2071.829102 314.548370,2114.046631 C321.523499,2209.161133 340.471954,2301.926514 370.862091,2392.350830 C388.505676,2444.848389 409.511871,2495.936035 434.339203,2545.449707 C435.821747,2548.406250 436.949341,2551.540527 438.101624,2555.306396 C437.961243,2556.020508 438.011230,2555.943848 438.011230,2555.943848 C430.845551,2551.220703 423.375916,2546.896484 416.563324,2541.709717 C370.758514,2506.835205 333.806641,2463.700684 301.161835,2416.691895 C251.682785,2345.440918 214.113785,2267.952148 182.299744,2187.534912 C142.164902,2086.085205 112.093849,1981.582397 87.673599,1875.340210 C71.412453,1804.595093 57.765556,1733.355957 46.783154,1661.635864 C39.581635,1614.606567 33.866619,1567.345825 27.802011,1520.148071 C24.960545,1498.034546 22.866129,1475.825073 20.671837,1452.498291 C20.575596,1450.229126 20.240662,1449.120483 19.905724,1448.011963 C19.472260,1443.199097 19.038795,1438.386230 18.850128,1432.367432 C18.693695,1429.445679 18.292467,1427.729614 17.891247,1426.013672 C17.405558,1420.545898 16.919857,1415.078247 16.707296,1408.386719 C16.605303,1405.447388 16.230169,1403.731689 15.855026,1402.016113 C14.877430,1388.629028 13.899846,1375.242065 12.997091,1360.589844 C13.130397,1358.638184 12.866734,1358.113281 12.280930,1357.750000 C10.976645,1335.058716 9.672359,1312.367554 8.670751,1288.425049 C8.638742,1285.451416 8.304057,1283.729004 7.969367,1282.006470 C7.409771,1269.261475 6.850180,1256.516479 6.613258,1242.404541 C6.601191,1238.694214 6.266455,1236.351074 5.931716,1234.007812 C5.814703,1227.345093 5.697692,1220.682251 5.475561,1213.124268 C5.360574,1196.261719 5.350708,1180.294556 5.300009,1163.438965 C5.491272,1160.919800 5.926901,1159.288940 5.925422,1157.658569 C5.895693,1124.903687 5.815663,1092.148804 5.502727,1058.436768 z"/>
                </svg>